<?xml version="1.0" encoding="utf-8"?>
<!-- Generator: Adobe Illustrator 16.0.3, SVG Export Plug-In . SVG Version: 6.00 Build 0)  -->
<!DOCTYPE svg PUBLIC "-//W3C//DTD SVG 1.1//EN" "http://www.w3.org/Graphics/SVG/1.1/DTD/svg11.dtd">
<svg version="1.1" id="Layer_1" xmlns="http://www.w3.org/2000/svg" xmlns:xlink="http://www.w3.org/1999/xlink" x="0px" y="0px"
	 width="188px" height="253.333px" viewBox="0 0 188 253.333" enable-background="new 0 0 188 253.333" xml:space="preserve">
<g id="floors">
	<path id="basement" fill="none" stroke="#000000" stroke-miterlimit="10" d="M144.182,239.256v12.16H75.23
		c-13.15-1.102-24.16-5.67-33.15-12.16H144.182z"/>
	<path id="ground" fill="none" stroke="#000000" stroke-miterlimit="10" d="M153.561,239.256v-5.07c0-0.141-0.021-0.27-0.051-0.398
		c-0.21-0.82-1.08-1.291-2.13-1.291h-5.06c-1.051,0-1.92,0.471-2.141,1.291v5.469h-3.922v-4.647c0-0.642-0.26-1.221-0.68-1.642
		c-0.41-0.42-0.99-0.68-1.63-0.68c-1.28,0-2.312,1.039-2.312,2.319c0,0,0,4.608,0.01,4.649H42.08c-4.18-3.021-7.94-6.5-11.32-10.34
		H158.5l9.141,5.66h5l11.359,4.68H153.561z"/>
	<path id="first_1_" fill="none" stroke="#000000" stroke-miterlimit="10" d="M130.75,216.667v12.25H30.76
		c-3.34-3.77-6.31-7.89-8.95-12.25H130.75z"/>
	<path id="second" fill="none" stroke="#000000" stroke-miterlimit="10" d="M130.75,204.417v12.25H21.81
		c-2.37-3.92-4.48-8.028-6.32-12.25H130.75z"/>
	<path id="third" fill="none" stroke="#000000" stroke-miterlimit="10" d="M130.75,192.167v12.25H15.49
		c-1.77-4-3.31-8.108-4.64-12.25H130.75z"/>
	<path id="fourth" fill="none" stroke="#000000" stroke-miterlimit="10" d="M130.75,186.417v5.75H10.85
		c-1.32-4.08-2.44-8.199-3.38-12.278h109.45c0,0,0,0,0.01,0h1.57l0.04,2.239l3.21,2.459v1.83H130.75L130.75,186.417z"/>
	<path id="dome" fill="none" stroke="#000000" stroke-miterlimit="10" d="M116.93,179.875v0.01c-0.01,0-0.01,0-0.01,0H7.47
		c-2.93-12.67-4.13-25.049-4.17-35.199v-37.589h5.63v-12.37h4.26c-0.01-0.49-0.02-0.99-0.02-1.48c0-21.61,10.32-39.86,24.52-45.83
		c0,0-0.13-1.23-0.13-1.96c0-0.93,0.1-1.92,0.26-2.52c0.16-0.61,0.63-0.84,0.63-0.84s1.73-1.09,3.39-1.96v-15.9l0.66-0.63h1.75
		l1.06-3.15l-0.34-0.32v-3.49l0.35-0.28h4.89l0.42,0.28v3.49l-0.45,0.32l1.17,3.15h1.72l0.69,0.63c0,0,0.02,15.75,0.04,15.9
		c1.66,0.87,3.39,1.96,3.39,1.96s0.47,0.23,0.63,0.84c0.16,0.6,0.26,1.59,0.26,2.52c0,0.73-0.06,1.41-0.17,1.96
		c14.2,5.97,24.52,24.22,24.52,45.83c0,0.49-0.01,0.99-0.02,1.48h4.26v12.37h5.63v37.28h3.87v6.09h4.96v12.869h6.32v10.851
		C112.93,174.926,116.92,177.256,116.93,179.875z"/>
</g>
<g id="statue">
	<g id="Wisconsin_statue_picture_copy">
		<g>
			<path fill="#FFFFFF" d="M49.903,16.819c-0.021-0.039-0.034-0.087-0.065-0.116c-0.145-0.134-0.297-0.26-0.44-0.396
				c-0.11-0.105-0.233-0.208-0.307-0.336c-0.037-0.065,0.022-0.186,0.038-0.281c0.002-0.014,0.005-0.027,0.006-0.04
				c0.056-0.575,0.117-1.148,0.166-1.723c0.026-0.31,0.027-0.622,0.047-0.933c0.027-0.44,0.065-0.88,0.091-1.322
				c0.018-0.315,0.019-0.631,0.037-0.947c0.003-0.067,0.043-0.133,0.073-0.198c0.009-0.019,0.037-0.038,0.059-0.042
				c0.294-0.053,0.586-0.394,0.558-0.696c-0.026-0.286-0.101-0.567-0.138-0.853c-0.013-0.106,0.014-0.219,0.035-0.326
				c0.031-0.163,0.088-0.322,0.106-0.485c0.038-0.345,0.045-0.694,0.093-1.037c0.016-0.118,0.1-0.239,0.184-0.329
				c0.077-0.082,0.202-0.114,0.296-0.183c0.2-0.144,0.391-0.298,0.351-0.589c-0.017-0.123-0.023-0.248-0.035-0.374
				c0.196-0.115,0.372-0.355,0.425-0.578c0.014-0.061,0.035-0.122,0.058-0.18c0.046-0.118,0.006-0.292-0.096-0.383
				c-0.105-0.093-0.191,0.003-0.283,0.036c-0.016,0.006-0.032,0.017-0.046,0.029c-0.069,0.062-0.141,0.053-0.232,0.047
				c-0.155-0.01-0.234-0.118-0.303-0.163c-0.026-0.103-0.022-0.194-0.066-0.232c-0.042-0.037-0.131-0.017-0.201-0.021
				c-0.008,0.013-0.017,0.027-0.026,0.04c0.043,0.049,0.077,0.125,0.13,0.141c0.101,0.032,0.096,0.083,0.072,0.169
				c-0.033-0.019-0.057-0.032-0.092-0.052c0.012,0.083,0.022,0.152,0.032,0.22c-0.013-0.004-0.026-0.008-0.04-0.013
				c-0.02,0.068-0.04,0.135-0.06,0.203c0.009-0.275-0.038-0.313-0.302-0.398c-0.087-0.029-0.175-0.074-0.246-0.133
				c-0.084-0.069-0.148-0.063-0.204,0.021c-0.061,0.088-0.115,0.183-0.163,0.279c-0.043,0.087,0.013,0.143,0.137,0.126
				c-0.052,0.327,0.142,0.506,0.433,0.64c0.117-0.038,0.271-0.087,0.435-0.14c-0.025,0.311-0.232,0.442-0.417,0.591
				c-0.034,0.027-0.088,0.07-0.083,0.096c0.024,0.111,0.05,0.229,0.111,0.321c0.021,0.031,0.147-0.009,0.235-0.018
				c-0.063,0.058-0.135,0.119-0.201,0.185c-0.044,0.044-0.103,0.09-0.115,0.144c-0.061,0.268-0.108,0.538-0.161,0.807
				c-0.017,0.087-0.033,0.175-0.049,0.262c-0.012-0.002-0.024-0.005-0.036-0.007c0.015-0.172,0.03-0.344,0.045-0.517
				c-0.007,0-0.015-0.002-0.022-0.003c-0.039,0.14-0.078,0.279-0.116,0.418c-0.012,0-0.023,0-0.034,0
				c-0.014-0.058-0.02-0.119-0.041-0.174c-0.046-0.124-0.071-0.273-0.157-0.361c-0.12-0.123-0.287-0.199-0.434-0.293
				c-0.069-0.044-0.136-0.108-0.211-0.124c-0.199-0.041-0.401-0.061-0.602-0.09c-0.27-0.039-0.324-0.095-0.355-0.367
				c-0.003-0.026,0-0.055-0.006-0.081c-0.067-0.281,0.066-0.526,0.139-0.782c0.188,0.038,0.301-0.01,0.272-0.14
				c-0.03-0.135,0.004-0.259-0.002-0.387c-0.004-0.086,0.088-0.199-0.056-0.255c0.01-0.026,0.014-0.059,0.032-0.077
				c0.145-0.144,0.094-0.32,0.107-0.522c-0.033,0.046-0.044,0.063-0.041,0.057c-0.085-0.063-0.169-0.124-0.262-0.191
				c-0.129,0.126-0.25,0.245-0.394,0.386c-0.01-0.039-0.025-0.078-0.032-0.119c-0.012-0.074-0.002-0.156-0.032-0.221
				c-0.101-0.225-0.139-0.22-0.297-0.04c-0.117,0.134,0.019,0.279-0.05,0.409c0.032,0.017,0.063,0.033,0.11,0.058
				c-0.049,0.018-0.078,0.028-0.108,0.04c0.03,0.014,0.057,0.027,0.087,0.042c-0.146,0.121-0.282,0.234-0.417,0.347
				c0.02-0.138,0.016-0.157-0.059-0.286c-0.007-0.013,0.02-0.047,0.031-0.071c0.027-0.015,0.055-0.03,0.082-0.045
				c0.028-0.033,0.056-0.065,0.082-0.097c-0.079-0.118-0.165-0.221-0.22-0.338c-0.045-0.099-0.09-0.088-0.143-0.028
				c-0.034,0.039-0.048,0.096-0.077,0.158c-0.011-0.056-0.018-0.094-0.027-0.141c-0.159,0.112-0.228,0.466-0.098,0.641
				c0.046-0.083,0.088-0.158,0.131-0.233c0.014,0.013,0.029,0.025,0.043,0.039c-0.018,0.119-0.177,0.199-0.121,0.323
				c0.055-0.021,0.101-0.037,0.173-0.064c-0.067,0.158-0.119,0.282-0.17,0.402c0.036,0.018,0.056,0.029,0.08,0.041
				c-0.13,0.159-0.07,0.323,0.116,0.402c0.042,0.019,0.067,0.082,0.093,0.128c0.013,0.024,0.011,0.057,0.015,0.086
				c0.027-0.13,0.023-0.258,0.048-0.38c0.061-0.308,0.065-0.306,0.141-0.33c-0.016,0.064-0.031,0.124-0.048,0.19
				c0.031-0.021,0.055-0.037,0.094-0.063c-0.019,0.129-0.034,0.237-0.05,0.346c0.018,0.004,0.035,0.008,0.053,0.013
				c0.037-0.063,0.059-0.148,0.114-0.184c0.1-0.066,0.138-0.134,0.061-0.274c0.178,0.174,0.087,0.607-0.103,0.664
				c-0.086,0.171,0.179,0.194,0.145,0.343c-0.162-0.025-0.167-0.023-0.153,0.145c0.01,0.113,0.035,0.224,0.057,0.357
				c-0.201-0.014-0.424-0.023-0.646-0.047c-0.06-0.007-0.123-0.048-0.171-0.089c-0.115-0.097-0.226-0.201-0.332-0.308
				c-0.091-0.092-0.193-0.181-0.255-0.291c-0.148-0.263-0.337-0.487-0.554-0.696c-0.07-0.069-0.106-0.182-0.136-0.281
				c-0.034-0.116-0.026-0.246-0.069-0.357c-0.154-0.397-0.19-0.815-0.229-1.231c-0.012-0.13,0.024-0.266,0.05-0.396
				c0.049-0.249,0.107-0.495,0.162-0.742c-0.02-0.008-0.04-0.016-0.059-0.021c-0.07,0.121-0.141,0.242-0.226,0.388
				c-0.043-0.112-0.094-0.21-0.119-0.316c-0.035-0.153-0.048-0.312-0.076-0.467c-0.008-0.046-0.037-0.088-0.07-0.163
				c-0.059,0.13-0.212,0.182-0.101,0.327c0.026,0.034,0.044,0.104,0.026,0.138c-0.048,0.093-0.105,0.188-0.182,0.259
				c-0.067,0.062-0.109,0.114-0.085,0.206c0.021,0.078,0.035,0.158,0.06,0.235c0.05,0.153,0.132,0.302,0.153,0.459
				c0.06,0.438,0.083,0.88,0.143,1.317c0.049,0.362,0.089,0.728,0.271,1.061c0.171,0.312,0.317,0.637,0.469,0.959
				c0.033,0.071,0.048,0.194-0.04,0.203c-0.19,0.017-0.137,0.267-0.308,0.282c-0.002,0-0.003,0.008-0.006,0.015
				c0.015,0.013,0.03,0.026,0.045,0.04c-0.055,0.03-0.114,0.051-0.159,0.09c-0.043,0.037,0.02,0.133-0.087,0.155
				c-0.031,0.006-0.044,0.098-0.065,0.15c0.205,0.124,0.281-0.115,0.454-0.187c-0.033,0.059-0.044,0.08-0.069,0.124
				c0.08-0.027,0.132-0.045,0.205-0.07c-0.049,0.065-0.115,0.118-0.106,0.146c0.057,0.172-0.081,0.302-0.094,0.463
				c-0.013,0.161-0.029,0.32-0.018,0.482c0.002,0.026,0.019,0.07,0.035,0.074c0.024,0.004,0.073-0.016,0.078-0.035
				c0.026-0.101,0.05-0.203,0.058-0.307c0.006-0.082-0.04-0.176-0.013-0.245c0.092-0.236,0.192-0.472,0.317-0.691
				c0.065-0.113,0.141-0.246,0.295-0.276c0.03-0.006,0.069-0.008,0.092,0.007c0.018,0.011,0.022,0.052,0.023,0.08
				c0.004,0.05,0.001,0.1,0.001,0.151c0.008,0,0.016,0.001,0.024,0.002c0.032-0.055,0.063-0.109,0.103-0.177
				c0.009,0.06,0.015,0.102,0.022,0.151c0.014-0.015,0.019-0.021,0.024-0.026c0.006-0.007,0.013-0.014,0.038-0.042
				c0.006,0.4-0.071,0.75-0.268,1.07c0.013,0,0.03-0.002,0.06-0.004c-0.036,0.059-0.103,0.119-0.092,0.162
				c0.035,0.151-0.06,0.277-0.062,0.427c-0.003,0.258-0.119,0.515-0.175,0.774c-0.038,0.172-0.057,0.347-0.084,0.522
				c-0.02,0.092-0.039,0.185-0.065,0.307c0.082-0.05,0.123-0.074,0.164-0.098c0.016-0.066,0.031-0.132,0.047-0.199
				c0.31-0.49,0.23-1.109,0.555-1.639c0,0.16,0.006,0.283-0.002,0.406c-0.008,0.106-0.037,0.212-0.048,0.32
				c-0.014,0.137-0.141,0.266-0.032,0.414c-0.062,0.261-0.128,0.521-0.179,0.783c-0.007,0.041-0.07,0.16,0.088,0.153
				c-0.055,0.081-0.103,0.156-0.157,0.227c-0.062,0.079-0.129,0.153-0.202,0.238c0.148,0.088,0.157,0.183,0.084,0.273
				c0.017,0.042,0.047,0.081,0.037,0.098c-0.035,0.064-0.073,0.132-0.127,0.179c-0.101,0.086-0.214,0.159-0.322,0.237
				c-0.055,0.04-0.145,0.061-0.067,0.16c0.012,0.015-0.008,0.059-0.019,0.087c-0.051,0.138,0.026,0.242,0.084,0.357
				c-0.002-0.201,0.191-0.243,0.28-0.364c0.018-0.025,0.059-0.033,0.087-0.048c0.17,0.175,0.056,0.373,0.069,0.554
				c0.009,0.119-0.051,0.243,0.04,0.354c0.016,0.02,0.021,0.062,0.012,0.087c-0.04,0.121-0.092,0.238-0.129,0.359
				c-0.036,0.117-0.09,0.236-0.023,0.401c0.1-0.171,0.181-0.313,0.264-0.456c0.125,0.04,0.124,0.04,0.05,0.149
				c-0.009,0.013-0.013,0.03-0.014,0.046c-0.008,0.155-0.016,0.311-0.022,0.466c-0.001,0.027,0.009,0.054,0.017,0.098
				c-0.108,0.071-0.088,0.177-0.039,0.302c0.141,0.356,0.202,0.727,0.146,1.109c-0.033,0.222-0.081,0.441-0.123,0.663
				c0.144-0.04,0.288-0.077,0.43-0.12c0.07-0.021,0.137-0.052,0.198-0.075c0.029,0.01,0.061,0.032,0.094,0.033
				c0.069,0,0.138-0.01,0.213-0.016c-0.333,0.078-0.657,0.154-0.981,0.23c0.325-0.035,0.646-0.075,0.965-0.12
				c0.115-0.016,0.126,0.043,0.118,0.134c-0.111,0.002-0.146,0.035-0.107,0.15c0.026,0.079,0.021,0.174-0.11,0.206
				c-0.136,0.033-0.263,0.098-0.424,0.161c0.046,0.019,0.09,0.051,0.106,0.041c0.109-0.074,0.146-0.01,0.181,0.08
				c0.021,0.055,0.056,0.104,0.079,0.158c0.01,0.021,0.005,0.049,0.006,0.074"/>
			<path fill="#FFFFFF" d="M45.064,9.826c0.097,0.034,0.149,0.002,0.167-0.093c0.017-0.088,0.04-0.176,0.058-0.264
				c0.081-0.387,0.16-0.775,0.241-1.162c0.059-0.276,0.12-0.552,0.179-0.828c-0.012-0.003-0.024-0.006-0.036-0.01
				c-0.028,0.065-0.063,0.128-0.081,0.197c-0.043,0.163-0.078,0.328-0.115,0.487c-0.167,0.011-0.231-0.09-0.21-0.298
				c-0.029,0.136-0.047,0.223-0.065,0.311c-0.029,0.145-0.077,0.29-0.08,0.435c-0.004,0.158-0.06,0.26-0.19,0.343
				C44.842,9,44.739,9.067,44.768,9.202c0.059,0.039,0.139-0.098,0.175,0.033c0.042-0.016,0.085-0.032,0.129-0.048
				c0.015,0.007,0.029,0.015,0.044,0.022c-0.183,0.161-0.276,0.338-0.138,0.572c0.008-0.063,0.014-0.112,0.021-0.162
				c0.029,0.038,0.03,0.073,0.037,0.107C45.042,9.761,45.055,9.794,45.064,9.826z"/>
			<path fill="#FFFFFF" d="M45.439,7.535c0,0.023-0.004,0.045,0.001,0.066c0.02,0.087,0.027,0.154-0.085,0.197
				c-0.078,0.029-0.055,0.189,0.026,0.255c-0.019-0.241-0.019-0.241,0.088-0.205c0.028-0.077,0.059-0.153,0.082-0.23
				c0.022-0.076,0.036-0.154,0.056-0.245c-0.021-0.008-0.055-0.022-0.099-0.041c0.006,0.079,0.011,0.141,0.016,0.21
				C45.496,7.541,45.472,7.538,45.439,7.535z"/>
			<path d="M45.374,9.858c0.027-0.174,0.046-0.35,0.084-0.521c0.057-0.259,0.172-0.516,0.175-0.774
				c0.002-0.15,0.097-0.276,0.062-0.427c-0.011-0.042,0.056-0.103,0.092-0.162c-0.03,0.002-0.047,0.004-0.06,0.004
				c0.197-0.319,0.274-0.669,0.268-1.07c-0.025,0.028-0.031,0.035-0.038,0.042c-0.005,0.006-0.011,0.012-0.024,0.026
				c-0.007-0.049-0.013-0.091-0.022-0.151c-0.04,0.067-0.071,0.122-0.103,0.177c-0.008,0-0.016-0.001-0.024-0.002
				c0-0.051,0.002-0.101-0.001-0.151c-0.001-0.028-0.005-0.069-0.023-0.08c-0.023-0.015-0.063-0.013-0.092-0.007
				c-0.154,0.03-0.23,0.163-0.295,0.276c-0.125,0.219-0.226,0.455-0.317,0.691c-0.027,0.069,0.02,0.164,0.013,0.245
				c-0.008,0.104-0.032,0.206-0.058,0.307C45.003,8.3,44.954,8.32,44.93,8.316c-0.016-0.003-0.033-0.047-0.035-0.074
				C44.884,8.08,44.9,7.921,44.913,7.76c0.013-0.162,0.15-0.291,0.094-0.463c-0.009-0.028,0.057-0.081,0.106-0.146
				c-0.072,0.025-0.125,0.043-0.205,0.07c0.025-0.044,0.036-0.065,0.069-0.124c-0.173,0.071-0.249,0.311-0.454,0.187
				c0.021-0.052,0.035-0.144,0.065-0.15c0.106-0.021,0.044-0.118,0.087-0.155c0.045-0.039,0.104-0.06,0.159-0.09
				c-0.016-0.014-0.031-0.027-0.045-0.04c0.002-0.007,0.004-0.014,0.006-0.015c0.171-0.015,0.118-0.265,0.308-0.282
				c0.087-0.008,0.073-0.132,0.04-0.203c-0.151-0.322-0.298-0.647-0.469-0.959c-0.182-0.333-0.223-0.698-0.271-1.061
				c-0.06-0.438-0.083-0.88-0.143-1.317c-0.021-0.157-0.103-0.306-0.153-0.459c-0.025-0.077-0.039-0.157-0.06-0.235
				c-0.024-0.091,0.019-0.144,0.085-0.206c0.077-0.07,0.134-0.166,0.182-0.259c0.018-0.033,0-0.104-0.026-0.138
				C44.176,1.572,44.33,1.52,44.389,1.39c0.033,0.074,0.062,0.117,0.07,0.163c0.028,0.155,0.041,0.313,0.076,0.467
				c0.024,0.106,0.076,0.205,0.119,0.316c0.085-0.146,0.156-0.267,0.226-0.388c0.02,0.008,0.039,0.016,0.059,0.023
				c-0.055,0.247-0.112,0.494-0.162,0.742c-0.026,0.131-0.062,0.267-0.05,0.396c0.038,0.417,0.074,0.834,0.229,1.231
				c0.043,0.111,0.035,0.241,0.069,0.357c0.03,0.099,0.065,0.212,0.136,0.281c0.216,0.208,0.405,0.433,0.554,0.696
				c0.063,0.11,0.165,0.199,0.255,0.291c0.106,0.107,0.217,0.21,0.332,0.308c0.048,0.041,0.111,0.082,0.171,0.089
				c0.222,0.024,0.445,0.033,0.646,0.047c-0.021-0.133-0.047-0.244-0.057-0.357c-0.014-0.168-0.009-0.17,0.153-0.145
				c0.034-0.149-0.231-0.172-0.145-0.343c0.19-0.056,0.281-0.49,0.103-0.664c0.077,0.14,0.039,0.208-0.061,0.274
				c-0.055,0.036-0.077,0.121-0.114,0.184c-0.018-0.004-0.035-0.008-0.053-0.013c0.016-0.108,0.031-0.217,0.05-0.346
				c-0.039,0.025-0.063,0.042-0.094,0.063c0.017-0.067,0.032-0.126,0.048-0.19c-0.075,0.024-0.08,0.022-0.141,0.33
				c-0.024,0.123-0.021,0.25-0.048,0.38c-0.004-0.029-0.002-0.062-0.015-0.086c-0.026-0.046-0.051-0.109-0.093-0.128
				c-0.187-0.079-0.247-0.243-0.116-0.402c-0.024-0.011-0.044-0.022-0.08-0.041c0.051-0.12,0.103-0.244,0.17-0.402
				c-0.073,0.027-0.118,0.043-0.173,0.064c-0.057-0.124,0.103-0.205,0.121-0.323c-0.015-0.013-0.029-0.025-0.043-0.039
				c-0.042,0.076-0.084,0.151-0.131,0.233c-0.13-0.175-0.061-0.529,0.098-0.641c0.009,0.047,0.017,0.085,0.027,0.141
				c0.029-0.062,0.043-0.119,0.077-0.158c0.053-0.06,0.098-0.07,0.143,0.028c0.055,0.117,0.142,0.22,0.22,0.338
				c-0.026,0.032-0.054,0.064-0.082,0.097c-0.032-0.023-0.076-0.075-0.095-0.066c-0.047,0.02-0.083,0.066-0.124,0.102
				c0.01,0.014,0.02,0.028,0.03,0.042c0.036-0.011,0.071-0.021,0.107-0.032C46.79,4.333,46.763,4.367,46.77,4.38
				c0.075,0.129,0.079,0.148,0.059,0.286c0.135-0.113,0.271-0.226,0.417-0.347c-0.03-0.014-0.057-0.027-0.087-0.042
				c0.03-0.011,0.059-0.021,0.108-0.04c-0.047-0.025-0.078-0.041-0.11-0.058c0.069-0.129-0.067-0.275,0.05-0.409
				c0.158-0.181,0.197-0.186,0.297,0.04c0.03,0.065,0.02,0.147,0.032,0.221c0.007,0.041,0.021,0.081,0.032,0.119
				c0.144-0.141,0.265-0.26,0.394-0.386c0.092,0.067,0.176,0.128,0.262,0.191C48.22,3.962,48.231,3.946,48.265,3.9
				c-0.013,0.202,0.037,0.378-0.107,0.522c-0.019,0.018-0.022,0.051-0.032,0.077c0.144,0.056,0.051,0.169,0.056,0.255
				c0.006,0.128-0.028,0.251,0.002,0.387c0.029,0.13-0.084,0.178-0.272,0.14c-0.072,0.256-0.206,0.501-0.139,0.782
				c0.006,0.026,0.002,0.055,0.006,0.081c0.032,0.271,0.086,0.328,0.355,0.367c0.201,0.029,0.403,0.049,0.602,0.09
				c0.076,0.016,0.142,0.079,0.211,0.124c0.147,0.094,0.314,0.17,0.434,0.293c0.086,0.087,0.111,0.237,0.157,0.361
				c0.021,0.055,0.027,0.116,0.041,0.174c0.011,0,0.022,0,0.034,0c0.039-0.139,0.078-0.279,0.116-0.418
				c0.007,0.001,0.015,0.002,0.022,0.003c-0.015,0.172-0.03,0.344-0.045,0.517c0.012,0.002,0.024,0.004,0.036,0.007
				c0.017-0.087,0.032-0.175,0.049-0.262c0.052-0.269,0.1-0.539,0.161-0.807c0.012-0.054,0.071-0.1,0.115-0.144
				c0.066-0.066,0.138-0.127,0.201-0.185c-0.088,0.009-0.215,0.048-0.235,0.018c-0.061-0.092-0.087-0.21-0.111-0.321
				c-0.005-0.026,0.049-0.069,0.083-0.096c0.186-0.149,0.392-0.28,0.417-0.591c-0.164,0.053-0.318,0.102-0.435,0.14
				c-0.291-0.133-0.485-0.313-0.433-0.641c-0.125,0.017-0.18-0.039-0.137-0.126c0.048-0.097,0.102-0.191,0.163-0.279
				c0.056-0.082,0.119-0.088,0.204-0.019c0.07,0.059,0.158,0.104,0.246,0.133c0.264,0.086,0.311,0.124,0.302,0.398
				c0.02-0.067,0.04-0.135,0.06-0.203c0.013,0.004,0.026,0.009,0.04,0.013c-0.01-0.068-0.02-0.137-0.032-0.22
				c0.036,0.021,0.059,0.033,0.092,0.052c0.024-0.086,0.029-0.137-0.072-0.169c-0.053-0.016-0.087-0.092-0.13-0.141
				c0.009-0.013,0.018-0.027,0.026-0.04c0.069,0.005,0.159-0.015,0.201,0.021c0.044,0.038,0.041,0.129,0.066,0.232
				c0.068,0.045,0.147,0.153,0.303,0.163c0.092,0.006,0.163,0.014,0.232-0.047c0.014-0.012,0.03-0.023,0.046-0.029
				c0.092-0.033,0.177-0.129,0.283-0.036c0.102,0.09,0.142,0.265,0.096,0.383c-0.023,0.058-0.044,0.119-0.058,0.18
				c-0.055,0.22-0.231,0.461-0.427,0.575c0.012,0.126,0.018,0.251,0.035,0.374c0.04,0.291-0.151,0.445-0.351,0.589
				c-0.094,0.068-0.219,0.101-0.296,0.183c-0.084,0.09-0.168,0.211-0.184,0.329c-0.048,0.343-0.055,0.692-0.093,1.037
				c-0.019,0.164-0.075,0.323-0.106,0.485c-0.021,0.107-0.048,0.22-0.035,0.326c0.037,0.285,0.112,0.567,0.138,0.853
				c0.028,0.303-0.264,0.643-0.558,0.696c-0.022,0.004-0.05,0.023-0.059,0.042c-0.03,0.064-0.07,0.13-0.073,0.198
				c-0.018,0.315-0.019,0.632-0.037,0.947c-0.025,0.441-0.063,0.881-0.091,1.322c-0.02,0.311-0.021,0.623-0.047,0.933
				c-0.049,0.575-0.11,1.148-0.166,1.723c-0.001,0.013-0.004,0.026-0.006,0.04c-0.016,0.095-0.075,0.216-0.038,0.281
				c0.073,0.128,0.196,0.231,0.307,0.336c0.144,0.136,0.296,0.262,0.44,0.396c0.031,0.029,0.044,0.077,0.065,0.116
				c-1.103,0-2.205,0-3.308,0c-0.001-0.025,0.004-0.053-0.006-0.074c-0.023-0.054-0.058-0.103-0.079-0.158
				c-0.035-0.09-0.071-0.154-0.181-0.08c-0.016,0.01-0.06-0.022-0.106-0.041c0.161-0.063,0.288-0.128,0.424-0.161
				c0.131-0.032,0.136-0.126,0.11-0.206c-0.038-0.115-0.004-0.148,0.107-0.15c0.008-0.09-0.003-0.15-0.118-0.134
				c-0.32,0.045-0.64,0.084-0.965,0.12c0.324-0.076,0.648-0.152,0.981-0.23c-0.076,0.006-0.145,0.017-0.213,0.016
				c-0.033,0-0.065-0.022-0.094-0.033c-0.061,0.023-0.128,0.054-0.198,0.075c-0.142,0.043-0.286,0.08-0.43,0.12
				c0.042-0.222,0.09-0.441,0.123-0.663c0.056-0.382-0.005-0.753-0.146-1.109c-0.049-0.125-0.069-0.231,0.039-0.302
				c-0.008-0.043-0.018-0.071-0.017-0.098c0.006-0.155,0.014-0.311,0.022-0.466c0.001-0.016,0.005-0.034,0.014-0.046
				c0.074-0.109,0.074-0.109-0.05-0.149c-0.083,0.144-0.165,0.285-0.264,0.456c-0.067-0.165-0.012-0.284,0.023-0.401
				c0.037-0.122,0.089-0.238,0.129-0.359c0.008-0.025,0.004-0.067-0.012-0.087c-0.091-0.112-0.031-0.236-0.04-0.354
				c-0.013-0.182,0.102-0.379-0.069-0.554c-0.029,0.015-0.07,0.023-0.087,0.048c-0.088,0.122-0.282,0.163-0.28,0.364
				c-0.058-0.115-0.136-0.219-0.084-0.357c0.01-0.028,0.03-0.072,0.019-0.087c-0.077-0.099,0.013-0.12,0.067-0.16
				c0.108-0.078,0.221-0.151,0.322-0.237c0.054-0.047,0.092-0.115,0.127-0.179c0.01-0.018-0.021-0.056-0.037-0.098
				c0.073-0.09,0.064-0.185-0.084-0.273c0.073-0.085,0.141-0.159,0.202-0.238c0.054-0.07,0.102-0.146,0.157-0.227
				c-0.158,0.007-0.095-0.113-0.088-0.153c0.05-0.263,0.117-0.522,0.179-0.783c-0.109-0.147,0.018-0.276,0.032-0.414
				c0.012-0.108,0.041-0.214,0.048-0.321c0.008-0.123,0.002-0.246,0.002-0.406c-0.325,0.53-0.246,1.149-0.555,1.639
				c-0.011-0.072-0.021-0.144-0.035-0.236c-0.049,0.093-0.083,0.157-0.116,0.221L45.374,9.858z M47.505,12.332
				c0.03-0.039,0.081-0.075,0.087-0.118c0.036-0.244,0.063-0.49,0.09-0.735c0.036-0.337,0.07-0.675,0.104-1.013
				c0.008-0.08,0.013-0.161,0.02-0.241c-0.017-0.002-0.033-0.003-0.05-0.005c-0.051,0.215-0.111,0.429-0.149,0.646
				c-0.03,0.17-0.017,0.349-0.049,0.519c-0.06,0.315-0.094,0.63-0.05,0.95c-0.021,0.11-0.041,0.221-0.062,0.331
				c0.02,0.002,0.04,0.004,0.06,0.006C47.505,12.559,47.505,12.445,47.505,12.332z M46.974,6.484
				c0.002-0.008,0.005-0.016,0.007-0.024c-0.132-0.006-0.266-0.03-0.395-0.016c-0.23,0.027-0.339,0.265-0.266,0.487
				c0.064,0.195,0.108,0.4,0.129,0.605c0.026,0.28,0.02,0.564,0.032,0.847c0.007,0.152,0.017,0.305,0.036,0.457
				c0.023,0.182,0.059,0.364,0.088,0.545c0.009-0.001,0.018-0.002,0.026-0.003c0-0.113,0-0.226,0-0.338
				c0.003,0,0.007-0.001,0.011-0.001c0.005,0.038,0.01,0.076,0.015,0.118c0.029-0.013,0.052-0.022,0.103-0.045
				c0,0.21-0.002,0.403,0.001,0.595c0.01,0.59,0.033,1.181,0.032,1.771c-0.001,0.695-0.029,1.39-0.031,2.084
				c-0.002,0.5,0.063,1.001-0.056,1.497c-0.02,0.082-0.037,0.165-0.055,0.248c0.011,0.004,0.022,0.009,0.033,0.013
				c0.028-0.035,0.069-0.067,0.081-0.107c0.037-0.124,0.079-0.25,0.09-0.377c0.016-0.182,0.008-0.366,0.008-0.549
				c0.001-0.289,0-0.578,0-0.868c-0.013-0.001-0.027-0.003-0.04-0.004c0.023-0.011,0.046-0.021,0.068-0.032
				c-0.01-0.042-0.031-0.083-0.031-0.125c0.004-0.199,0.02-0.398,0.021-0.597c0.003-0.583,0.006-1.166,0-1.748
				c-0.003-0.284-0.036-0.567-0.042-0.851c-0.005-0.251,0.008-0.503,0.013-0.754c0.002-0.125,0.031-0.142,0.14-0.093
				c0.01,0.083,0.02,0.157,0.03,0.242c0.08-0.037,0.136-0.063,0.194-0.09c-0.015-0.153-0.029-0.303-0.044-0.466
				c0.118-0.057,0.137-0.114,0.067-0.276c-0.012-0.028-0.022-0.06-0.023-0.09c-0.009-0.197-0.016-0.394-0.021-0.591
				c0-0.022,0.005-0.044,0.01-0.065c0.034-0.159,0.028-0.302-0.143-0.383c-0.021,0.017-0.042,0.033-0.068,0.054
				c-0.007-0.045-0.012-0.076-0.021-0.134c-0.023,0.083-0.039,0.136-0.054,0.189c-0.05-0.106-0.099-0.207-0.092-0.304
				c0.01-0.125-0.065-0.161-0.145-0.161c-0.116,0-0.053,0.099-0.055,0.157c-0.003,0.141-0.001,0.282-0.001,0.423
				c-0.073-0.212-0.133-0.418-0.173-0.627c-0.016-0.083-0.019-0.195,0.025-0.256c0.098-0.134,0.108-0.162-0.058-0.287
				C46.62,6.527,46.797,6.505,46.974,6.484z M48.047,9.889c-0.037,0.099-0.093,0.202-0.11,0.31c-0.033,0.207-0.05,0.417-0.064,0.626
				c-0.02,0.317-0.021,0.634-0.049,0.95c-0.021,0.246-0.068,0.49-0.105,0.735c-0.017,0.109-0.009,0.235-0.062,0.324
				c-0.116,0.196-0.082,0.4-0.077,0.604c0,0.017,0.01,0.047,0.019,0.048c0.094,0.015,0.054,0.056,0.043,0.117
				c-0.01,0.05,0.038,0.112,0.061,0.168c0.037-0.044,0.074-0.087,0.108-0.134c0.009-0.012,0.002-0.035,0.003-0.053
				c0.005-0.182,0.009-0.365,0.014-0.547c0.004-0.117,0.003-0.234,0.011-0.35c0.021-0.298,0.043-0.597,0.072-0.895
				c0.042-0.418,0.098-0.835,0.133-1.255C48.062,10.323,48.047,10.104,48.047,9.889z M47.1,10.035
				c-0.012,0.003-0.023,0.005-0.034,0.008c-0.004,0.042-0.013,0.085-0.01,0.127c0.014,0.142,0.036,0.283,0.046,0.425
				c0.014,0.181,0.021,0.363,0.026,0.544c0.007,0.243,0.015,0.485,0.011,0.728c-0.002,0.098-0.051,0.197-0.045,0.293
				c0.018,0.265,0.004,0.541,0.188,0.773c0.006-0.02,0.015-0.037,0.015-0.053c-0.005-0.319-0.011-0.638-0.018-0.957
				c-0.001-0.047-0.008-0.096-0.003-0.144c0.007-0.071,0.032-0.142,0.032-0.213c-0.001-0.277-0.105-0.541-0.082-0.826
				c0.017-0.197-0.04-0.401-0.07-0.601C47.152,10.104,47.119,10.07,47.1,10.035z M46.599,14.136c0.007,0,0.015,0,0.021,0
				c0.024-0.336,0.052-0.671,0.072-1.007c0.01-0.17,0.009-0.341,0.01-0.511c0-0.241,0.01-0.484-0.009-0.724
				c-0.008-0.105-0.054-0.229-0.234-0.234c0.038,0.187,0.073,0.36,0.109,0.537c-0.082,0.066-0.11,0.16-0.095,0.266
				c0.033,0.235,0.07,0.471,0.086,0.708C46.583,13.491,46.587,13.814,46.599,14.136z M45.186,6.197
				c0.023-0.009,0.047-0.018,0.07-0.027c-0.099-0.244-0.182-0.497-0.299-0.731c-0.225-0.449-0.342-0.924-0.407-1.417
				c-0.017-0.127-0.042-0.254-0.064-0.381C44.441,4.573,44.796,5.39,45.186,6.197z M48.773,8.449
				c0.005,0.074,0.011,0.158,0.018,0.242c-0.006,0-0.011,0-0.017,0c-0.013-0.045-0.026-0.089-0.049-0.167
				c-0.012,0.147-0.02,0.26-0.032,0.41c0.107-0.141,0.268-0.203,0.257-0.388c0.128,0.01,0.107-0.101,0.124-0.178
				c0.011-0.05,0.007-0.103,0.013-0.154c0.005-0.048,0.015-0.096,0.022-0.144c-0.012-0.002-0.022-0.005-0.034-0.008
				c-0.034,0.026-0.068,0.052-0.099,0.075c0.009,0.054,0.016,0.1,0.03,0.184c-0.054-0.092-0.087-0.149-0.124-0.21
				c-0.007,0.123-0.013,0.23-0.023,0.337C48.858,8.451,48.804,8.449,48.773,8.449z M48.598,13.94
				c0.015-0.004,0.03-0.008,0.045-0.012c0-0.145,0-0.29,0-0.435c-0.01,0-0.021,0-0.03-0.001c-0.011,0.046-0.023,0.092-0.034,0.137
				c0.003-0.001,0.007-0.003,0.011-0.004c0.022-0.37,0.044-0.739,0.065-1.109c-0.01,0-0.02-0.001-0.03-0.001
				c-0.061,0.616-0.122,1.231-0.182,1.847c0.016,0.002,0.032,0.003,0.048,0.005c0.018-0.169,0.035-0.338,0.05-0.487
				C48.551,13.89,48.575,13.915,48.598,13.94z M46.414,11.851c-0.022-0.001-0.044-0.002-0.067-0.003
				c-0.03,0.759,0.116,1.517,0.067,1.948C46.414,13.366,46.414,12.608,46.414,11.851z M47.525,6.501
				c-0.007,0.008-0.013,0.016-0.02,0.023c0.087,0.072,0.174,0.144,0.263,0.214c0.06,0.048,0.132,0.076,0.121,0.184
				c-0.007,0.072,0.051,0.129,0.101,0.116c0.048-0.102,0.085-0.167,0.109-0.237c0.008-0.023-0.008-0.063-0.026-0.084
				c-0.09-0.114-0.206-0.01-0.298-0.024c-0.021-0.071-0.037-0.132-0.048-0.172C47.654,6.513,47.59,6.507,47.525,6.501z
				 M48.609,14.674c-0.011-0.007-0.022-0.014-0.034-0.021c-0.024,0.038-0.049,0.076-0.091,0.14c0-0.119,0-0.208,0-0.297
				c-0.014,0-0.027,0-0.041,0c0,0.179,0,0.357,0,0.536c0.011,0.003,0.022,0.006,0.034,0.01
				C48.521,14.92,48.565,14.797,48.609,14.674z M45.922,12.037c-0.02,0.225-0.039,0.45-0.059,0.676
				c0.018,0.001,0.036,0.002,0.055,0.003C45.981,12.493,45.983,12.267,45.922,12.037z M47.256,14.236
				c0.018-0.006,0.036-0.013,0.054-0.02c-0.049-0.147-0.099-0.293-0.148-0.441c-0.019,0.067,0.005,0.145-0.022,0.189
				C47.036,14.131,47.184,14.163,47.256,14.236z M47.656,14.25c0.015,0.001,0.03,0.002,0.045,0.003
				c0.012-0.132,0.024-0.264,0.037-0.403C47.574,13.957,47.564,14.006,47.656,14.25z M49.112,11.478
				c0.132-0.097,0.105-0.34-0.042-0.409C49.084,11.207,49.097,11.333,49.112,11.478z M47.126,14.276
				c-0.018,0.006-0.035,0.011-0.053,0.017c0.005,0.098,0.01,0.197,0.016,0.301c0.041-0.02,0.071-0.035,0.105-0.052
				C47.171,14.448,47.148,14.362,47.126,14.276z M46.88,15.704c0.423-0.009,0.423-0.009,0.42-0.124
				c-0.227,0.139-0.246,0.141-0.352,0.025C46.926,15.637,46.905,15.667,46.88,15.704z M47.568,13.592
				c-0.016-0.001-0.032-0.003-0.048-0.005c-0.014,0.136-0.027,0.271-0.042,0.406c0.014,0.001,0.028,0.002,0.042,0.002
				C47.536,13.861,47.552,13.727,47.568,13.592z M47.802,9.835c-0.022-0.001-0.044-0.002-0.066-0.003
				c0.023,0.073-0.097,0.145,0.037,0.254C47.785,9.982,47.793,9.909,47.802,9.835z M48.834,9.694c-0.005,0-0.011-0.001-0.016-0.002
				c0,0.164,0,0.328,0,0.493c0.005,0,0.011,0,0.016,0C48.834,10.022,48.834,9.858,48.834,9.694z M45.931,12.842
				c-0.011-0.008-0.022-0.017-0.033-0.025c-0.017,0.041-0.046,0.081-0.047,0.122c-0.001,0.034,0.032,0.068,0.05,0.102
				c0.01-0.005,0.02-0.01,0.031-0.016C45.931,12.964,45.931,12.903,45.931,12.842z"/>
			<path d="M45.064,9.826c-0.009-0.032-0.022-0.065-0.028-0.101c-0.007-0.034-0.007-0.069-0.037-0.107
				c-0.006,0.05-0.013,0.1-0.021,0.162c-0.139-0.234-0.045-0.411,0.138-0.572c-0.015-0.008-0.029-0.015-0.044-0.022
				c-0.043,0.016-0.087,0.032-0.129,0.048c-0.037-0.131-0.117,0.006-0.175-0.033C44.739,9.067,44.842,9,44.932,8.943
				c0.131-0.083,0.187-0.185,0.19-0.343c0.003-0.145,0.051-0.29,0.08-0.435c0.018-0.087,0.036-0.175,0.065-0.311
				c-0.021,0.208,0.043,0.31,0.21,0.298c0.037-0.159,0.072-0.324,0.115-0.487c0.018-0.068,0.053-0.131,0.081-0.197
				c0.012,0.003,0.024,0.006,0.036,0.01c-0.06,0.276-0.121,0.552-0.179,0.828c-0.082,0.387-0.161,0.775-0.241,1.162
				c-0.018,0.088-0.041,0.175-0.058,0.264C45.213,9.828,45.161,9.86,45.064,9.826z"/>
			<path d="M45.439,7.535c0.033,0.003,0.057,0.006,0.083,0.009c-0.005-0.07-0.01-0.132-0.016-0.21
				c0.044,0.018,0.078,0.032,0.099,0.041c-0.02,0.09-0.034,0.169-0.056,0.245c-0.022,0.078-0.054,0.153-0.082,0.23
				c-0.106-0.036-0.106-0.036-0.088,0.205c-0.081-0.066-0.104-0.226-0.026-0.255c0.112-0.042,0.105-0.11,0.085-0.197
				C45.436,7.58,45.439,7.558,45.439,7.535z"/>
			<path fill="#FFFFFF" d="M45.368,9.854c0.033-0.064,0.067-0.128,0.116-0.221c0.014,0.093,0.024,0.164,0.035,0.236
				c-0.016,0.067-0.032,0.133-0.047,0.199c-0.026-0.02-0.066-0.034-0.076-0.06C45.378,9.96,45.376,9.906,45.368,9.854z"/>
			<path fill="#FFFFFF" d="M46.8,4.311c-0.036,0.011-0.072,0.021-0.107,0.032c-0.01-0.014-0.021-0.028-0.03-0.042
				c0.041-0.036,0.077-0.082,0.124-0.102c0.019-0.008,0.063,0.043,0.095,0.066C46.854,4.281,46.827,4.296,46.8,4.311z"/>
			<path d="M45.368,9.854c0.008,0.052,0.01,0.107,0.028,0.155c0.01,0.026,0.049,0.04,0.076,0.06
				c-0.041,0.024-0.082,0.048-0.164,0.098c0.026-0.122,0.045-0.214,0.065-0.307C45.374,9.858,45.368,9.854,45.368,9.854z"/>
			<path fill="#FFFFFF" d="M46.974,6.484c-0.176,0.021-0.354,0.043-0.556,0.067c0.167,0.125,0.156,0.152,0.058,0.287
				c-0.044,0.061-0.041,0.173-0.025,0.256c0.041,0.209,0.1,0.415,0.173,0.627c0-0.141-0.002-0.282,0.001-0.423
				c0.001-0.058-0.061-0.157,0.055-0.157c0.079,0,0.154,0.036,0.145,0.161c-0.007,0.097,0.042,0.198,0.092,0.304
				c0.015-0.053,0.03-0.106,0.054-0.189c0.009,0.058,0.014,0.089,0.021,0.134c0.026-0.021,0.047-0.037,0.068-0.054
				c0.171,0.081,0.177,0.225,0.143,0.383c-0.004,0.021-0.01,0.043-0.01,0.065c0.006,0.197,0.013,0.394,0.021,0.591
				c0.001,0.031,0.011,0.063,0.023,0.09c0.07,0.162,0.051,0.219-0.067,0.276c0.015,0.163,0.029,0.313,0.044,0.466
				c-0.059,0.027-0.115,0.053-0.194,0.09C47.01,9.374,47,9.299,46.99,9.216c-0.109-0.049-0.137-0.032-0.14,0.093
				c-0.004,0.251-0.018,0.503-0.013,0.754c0.006,0.284,0.039,0.567,0.042,0.851c0.007,0.583,0.004,1.165,0,1.748
				c-0.001,0.199-0.017,0.398-0.021,0.597c0,0.041,0.021,0.083,0.031,0.125c-0.022,0.01-0.045,0.021-0.068,0.032
				c0.013,0.001,0.026,0.003,0.04,0.004c0,0.29,0,0.579,0,0.868c0,0.183,0.008,0.367-0.008,0.549
				c-0.011,0.127-0.053,0.253-0.09,0.377c-0.012,0.04-0.053,0.072-0.081,0.107c-0.011-0.004-0.022-0.009-0.033-0.013
				c0.019-0.083,0.036-0.166,0.055-0.248c0.119-0.495,0.054-0.997,0.056-1.497c0.002-0.695,0.03-1.39,0.031-2.084
				c0.001-0.59-0.022-1.18-0.032-1.771c-0.003-0.192-0.001-0.385-0.001-0.595c-0.051,0.023-0.074,0.033-0.103,0.045
				c-0.005-0.042-0.01-0.08-0.015-0.118c-0.003,0-0.007,0.001-0.011,0.001c0,0.113,0,0.226,0,0.338
				c-0.009,0.001-0.018,0.002-0.026,0.003c-0.03-0.182-0.065-0.363-0.088-0.545c-0.02-0.152-0.029-0.305-0.036-0.457
				c-0.012-0.283-0.005-0.567-0.032-0.847c-0.021-0.205-0.065-0.41-0.129-0.605c-0.073-0.222,0.035-0.459,0.266-0.487
				c0.129-0.015,0.263,0.009,0.395,0.016C46.979,6.468,46.976,6.476,46.974,6.484z"/>
			<path fill="#FFFFFF" d="M48.047,9.889c0,0.216,0.015,0.434-0.003,0.649c-0.035,0.419-0.092,0.836-0.133,1.255
				c-0.029,0.298-0.051,0.597-0.072,0.895c-0.008,0.116-0.007,0.233-0.011,0.35c-0.005,0.182-0.009,0.365-0.014,0.547
				c0,0.018,0.006,0.041-0.003,0.053c-0.034,0.047-0.071,0.09-0.108,0.134c-0.022-0.056-0.071-0.118-0.061-0.168
				c0.011-0.061,0.051-0.102-0.043-0.117c-0.008-0.001-0.018-0.031-0.019-0.048c-0.004-0.205-0.039-0.408,0.077-0.604
				c0.053-0.089,0.045-0.215,0.062-0.324c0.037-0.245,0.084-0.489,0.105-0.735c0.027-0.316,0.029-0.633,0.049-0.95
				c0.014-0.209,0.031-0.419,0.064-0.626C47.955,10.09,48.011,9.988,48.047,9.889z M47.656,13.131
				c-0.007,0.001-0.014,0.003-0.02,0.005c0,0.075,0,0.15,0,0.225c0.008,0.002,0.016,0.004,0.023,0.006
				c0.037-0.069,0.074-0.139,0.111-0.208c-0.012-0.006-0.023-0.012-0.036-0.019c-0.011,0.022-0.022,0.044-0.035,0.071
				C47.683,13.179,47.669,13.155,47.656,13.131z"/>
			<path fill="#FFFFFF" d="M47.1,10.035c0.02,0.035,0.052,0.069,0.058,0.107c0.03,0.2,0.087,0.404,0.07,0.601
				c-0.024,0.285,0.081,0.549,0.082,0.826c0,0.071-0.025,0.142-0.032,0.213c-0.005,0.047,0.002,0.096,0.003,0.144
				c0.006,0.319,0.012,0.638,0.018,0.957c0,0.017-0.009,0.033-0.015,0.053c-0.184-0.232-0.17-0.508-0.188-0.773
				c-0.006-0.096,0.043-0.196,0.045-0.293c0.003-0.243-0.004-0.485-0.011-0.728c-0.005-0.182-0.013-0.363-0.026-0.544
				c-0.011-0.142-0.033-0.284-0.046-0.425c-0.003-0.042,0.006-0.085,0.01-0.127C47.077,10.041,47.088,10.038,47.1,10.035z"/>
			<path fill="#FFFFFF" d="M46.599,14.136c-0.012-0.322-0.016-0.645-0.039-0.966c-0.016-0.237-0.053-0.472-0.086-0.708
				c-0.015-0.105,0.013-0.2,0.095-0.266c-0.036-0.177-0.072-0.35-0.109-0.537c0.18,0.005,0.226,0.129,0.234,0.234
				c0.019,0.24,0.01,0.483,0.009,0.724c0,0.17,0,0.341-0.01,0.511c-0.02,0.336-0.048,0.671-0.072,1.007
				C46.613,14.136,46.606,14.136,46.599,14.136z"/>
			<path fill="#FFFFFF" d="M47.508,12.335c-0.044-0.32-0.01-0.634,0.05-0.95c0.032-0.17,0.02-0.349,0.049-0.519
				c0.038-0.217,0.099-0.431,0.149-0.646c0.017,0.002,0.033,0.003,0.05,0.005c-0.006,0.08-0.011,0.161-0.02,0.241
				c-0.034,0.338-0.068,0.676-0.104,1.013c-0.027,0.245-0.054,0.491-0.09,0.735c-0.006,0.043-0.057,0.079-0.087,0.118L47.508,12.335
				z"/>
			<path fill="#FFFFFF" d="M45.186,6.197c-0.39-0.807-0.744-1.624-0.7-2.556c0.021,0.127,0.047,0.253,0.064,0.381
				c0.065,0.493,0.183,0.968,0.407,1.417c0.118,0.234,0.201,0.487,0.299,0.731C45.232,6.179,45.209,6.188,45.186,6.197z"/>
			<path fill="#FFFFFF" d="M48.773,8.449c0.031,0,0.085,0.002,0.085,0c0.01-0.106,0.016-0.214,0.023-0.337
				c0.036,0.061,0.07,0.118,0.124,0.21c-0.014-0.083-0.021-0.129-0.03-0.184c0.031-0.023,0.065-0.049,0.099-0.075
				c0.011,0.002,0.022,0.005,0.034,0.008c-0.008,0.048-0.017,0.095-0.022,0.144c-0.006,0.051-0.002,0.104-0.013,0.154
				c-0.017,0.077,0.005,0.188-0.124,0.178c0.011,0.185-0.149,0.247-0.257,0.388c0.012-0.15,0.021-0.263,0.032-0.41
				c0.022,0.077,0.036,0.122,0.049,0.167c0.006,0,0.011,0,0.017,0C48.784,8.607,48.778,8.523,48.773,8.449z"/>
			<path fill="#FFFFFF" d="M48.598,13.94c-0.023-0.025-0.047-0.05-0.057-0.06c-0.015,0.149-0.032,0.318-0.05,0.487
				c-0.016-0.001-0.032-0.003-0.048-0.005c0.061-0.616,0.122-1.231,0.182-1.847c0.01,0,0.02,0.001,0.03,0.001
				c-0.021,0.37-0.043,0.739-0.065,1.109c-0.003,0.001-0.007,0.003-0.011,0.004c0.011-0.045,0.023-0.091,0.034-0.137
				c0.01,0,0.021,0.001,0.03,0.001c0,0.145,0,0.29,0,0.435C48.628,13.932,48.613,13.936,48.598,13.94z"/>
			<path fill="#FFFFFF" d="M46.414,11.851c0,0.758,0,1.516,0,1.945c0.049-0.431-0.097-1.189-0.067-1.948
				C46.369,11.848,46.392,11.85,46.414,11.851z"/>
			<path fill="#FFFFFF" d="M47.525,6.501c0.064,0.006,0.128,0.012,0.202,0.019c0.011,0.041,0.028,0.101,0.048,0.172
				c0.092,0.014,0.208-0.09,0.298,0.024c0.018,0.022,0.035,0.062,0.026,0.084c-0.024,0.07-0.061,0.135-0.109,0.237
				c-0.049,0.013-0.107-0.044-0.101-0.116c0.011-0.108-0.061-0.136-0.121-0.184c-0.088-0.07-0.175-0.142-0.263-0.214
				C47.513,6.517,47.519,6.509,47.525,6.501z"/>
			<path fill="#FFFFFF" d="M48.609,14.674c-0.044,0.123-0.088,0.246-0.132,0.369c-0.012-0.003-0.023-0.007-0.034-0.01
				c0-0.179,0-0.357,0-0.536c0.014,0,0.027,0,0.041,0c0,0.089,0,0.178,0,0.297c0.042-0.064,0.066-0.103,0.091-0.14
				C48.587,14.66,48.598,14.667,48.609,14.674z"/>
			<path fill="#FFFFFF" d="M45.922,12.037c0.061,0.23,0.059,0.457-0.004,0.679c-0.019-0.001-0.037-0.002-0.055-0.003
				C45.883,12.487,45.903,12.262,45.922,12.037z"/>
			<path fill="#FFFFFF" d="M47.256,14.236c-0.073-0.073-0.22-0.105-0.116-0.271c0.028-0.044,0.004-0.122,0.022-0.189
				c0.049,0.147,0.099,0.294,0.148,0.441C47.292,14.223,47.274,14.23,47.256,14.236z"/>
			<path fill="#FFFFFF" d="M47.656,14.25c-0.091-0.244-0.082-0.293,0.083-0.4c-0.013,0.14-0.025,0.271-0.037,0.403
				C47.686,14.252,47.671,14.251,47.656,14.25z"/>
			<path fill="#FFFFFF" d="M49.112,11.478c-0.015-0.145-0.028-0.271-0.042-0.409C49.218,11.137,49.244,11.38,49.112,11.478z"/>
			<path fill="#FFFFFF" d="M47.126,14.276c0.022,0.086,0.044,0.172,0.068,0.266c-0.035,0.017-0.064,0.032-0.105,0.052
				c-0.005-0.104-0.011-0.203-0.016-0.301C47.091,14.287,47.109,14.282,47.126,14.276z"/>
			<path fill="#FFFFFF" d="M46.88,15.704c0.025-0.036,0.046-0.067,0.068-0.099c0.106,0.116,0.125,0.114,0.352-0.025
				C47.303,15.694,47.303,15.694,46.88,15.704z"/>
			<path fill="#FFFFFF" d="M47.568,13.592c-0.016,0.135-0.032,0.269-0.048,0.403c-0.014,0-0.027-0.001-0.042-0.002
				c0.014-0.135,0.028-0.27,0.042-0.406C47.536,13.589,47.552,13.591,47.568,13.592z"/>
			<path fill="#FFFFFF" d="M47.802,9.835c-0.009,0.074-0.017,0.146-0.029,0.25c-0.134-0.109-0.014-0.181-0.037-0.254
				C47.758,9.833,47.78,9.834,47.802,9.835z"/>
			<path fill="#FFFFFF" d="M48.834,9.694c0,0.164,0,0.328,0,0.491c-0.005,0-0.011,0-0.016,0c0-0.165,0-0.329,0-0.493
				C48.824,9.693,48.829,9.694,48.834,9.694z"/>
			<path fill="#FFFFFF" d="M45.931,12.842c0,0.061,0,0.122,0,0.183c-0.011,0.005-0.021,0.01-0.031,0.016
				c-0.018-0.034-0.051-0.068-0.05-0.102c0.001-0.041,0.03-0.081,0.047-0.122C45.908,12.825,45.919,12.833,45.931,12.842z"/>
			<path fill="#FFFFFF" d="M47.505,12.332c0,0.113,0,0.227,0,0.34c-0.02-0.002-0.04-0.004-0.06-0.006
				c0.021-0.11,0.042-0.22,0.062-0.331C47.508,12.335,47.505,12.332,47.505,12.332z"/>
			<path d="M47.656,13.131c0.013,0.024,0.026,0.048,0.043,0.08c0.013-0.026,0.024-0.048,0.035-0.071
				c0.012,0.006,0.024,0.013,0.036,0.019c-0.037,0.07-0.074,0.139-0.111,0.208c-0.007-0.002-0.016-0.004-0.023-0.006
				c0-0.075,0-0.15,0-0.225C47.643,13.135,47.649,13.133,47.656,13.131z"/>
		</g>
	</g>
</g>
</svg>
